<svg width="363" height="235" viewBox="0 0 363 235" fill="none" xmlns="http://www.w3.org/2000/svg">
<rect y="22" width="363" height="213" rx="15" fill="#206DB0"/>
<rect x="31" y="60" width="44" height="44" rx="8" fill="#D9D9D9"/>
<rect x="31" y="134" width="15" height="37" fill="#D9D9D9"/>
<rect x="163" y="134" width="15" height="37" fill="#D9D9D9"/>
<rect x="295" y="134" width="15" height="37" fill="#D9D9D9"/>
<rect x="97" y="134" width="15" height="37" fill="#D9D9D9"/>
<rect x="229" y="134" width="15" height="37" fill="#D9D9D9"/>
<rect x="53" y="134" width="15" height="37" fill="#D9D9D9"/>
<rect x="185" y="134" width="15" height="37" fill="#D9D9D9"/>
<rect x="317" y="134" width="15" height="37" fill="#D9D9D9"/>
<rect x="119" y="134" width="15" height="37" fill="#D9D9D9"/>
<rect x="251" y="134" width="15" height="37" fill="#D9D9D9"/>
<rect x="75" y="134" width="15" height="37" fill="#D9D9D9"/>
<rect x="207" y="134" width="15" height="37" fill="#D9D9D9"/>
<rect x="141" y="134" width="15" height="37" fill="#D9D9D9"/>
<rect x="273" y="134" width="15" height="37" fill="#D9D9D9"/>
<rect x="241" y="186" width="91" height="37" rx="8" fill="#D9D9D9"/>
<path d="M122.08 82.22C122.08 79.7 122.584 77.456 123.592 75.488C124.624 73.52 126.088 71.996 127.984 70.916C129.88 69.812 132.112 69.26 134.68 69.26C136.888 69.26 138.856 69.68 140.584 70.52C142.336 71.336 143.752 72.5 144.832 74.012C145.936 75.524 146.668 77.288 147.028 79.304H138.604C138.22 78.464 137.668 77.816 136.948 77.36C136.252 76.88 135.448 76.64 134.536 76.64C133.192 76.64 132.124 77.144 131.332 78.152C130.564 79.16 130.18 80.516 130.18 82.22C130.18 83.924 130.564 85.28 131.332 86.288C132.124 87.296 133.192 87.8 134.536 87.8C135.448 87.8 136.252 87.572 136.948 87.116C137.668 86.636 138.22 85.976 138.604 85.136H147.028C146.668 87.152 145.936 88.916 144.832 90.428C143.752 91.94 142.336 93.116 140.584 93.956C138.856 94.772 136.888 95.18 134.68 95.18C132.112 95.18 129.88 94.64 127.984 93.56C126.088 92.456 124.624 90.92 123.592 88.952C122.584 86.984 122.08 84.74 122.08 82.22ZM181.549 95H173.557L165.097 82.184V95H157.105V69.512H165.097L173.557 82.544V69.512H181.549V95ZM213.204 78.26C213.204 79.868 212.832 81.332 212.088 82.652C211.344 83.948 210.24 84.98 208.776 85.748C207.336 86.516 205.584 86.9 203.52 86.9H200.352V95H192.36V69.512H203.52C206.64 69.512 209.028 70.304 210.684 71.888C212.364 73.472 213.204 75.596 213.204 78.26ZM202.62 80.6C204.276 80.6 205.104 79.82 205.104 78.26C205.104 76.7 204.276 75.92 202.62 75.92H200.352V80.6H202.62ZM240.723 69.512V85.964C240.723 89.012 239.919 91.328 238.311 92.912C236.727 94.472 234.495 95.252 231.615 95.252C228.519 95.252 226.059 94.4 224.235 92.696C222.411 90.992 221.499 88.508 221.499 85.244H229.383C229.383 86.276 229.551 87.008 229.887 87.44C230.223 87.848 230.679 88.052 231.255 88.052C231.735 88.052 232.107 87.896 232.371 87.584C232.635 87.272 232.767 86.732 232.767 85.964V69.512H240.723Z" fill="white"/>
<path opacity="0.6" d="M184.446 23.2613C220.889 23.2613 248.336 50.7086 248.336 87.152C248.336 123.595 218.686 153.264 182.243 153.264C145.799 153.264 118.352 125.817 118.352 89.3734C118.352 52.9301 148.002 23.2613 184.446 23.2613" fill="#81D4FA"/>
<path d="M184.446 23.2613C220.889 23.2613 248.336 50.7086 248.336 87.152C248.336 123.595 218.686 153.264 182.243 153.264C145.799 153.264 118.352 125.817 118.352 89.3734C118.352 52.9301 148.002 23.2613 184.446 23.2613M130.084 30.7887C93.9523 66.9199 111.687 119.703 125.806 134.115C151.931 160.773 200.767 175.956 237.302 139.403C271.139 105.566 258.985 62.6605 235.154 36.425C219.329 19.0203 166.196 -5.32422 130.084 30.7887V30.7887Z" fill="#616161"/>
<path d="M280.19 166.813L264.896 182.198L228.875 145.847C228.875 145.847 225.828 139.99 231.85 133.968C237.871 127.947 244.169 130.462 244.169 130.462L280.19 166.813Z" fill="#BDBDBD"/>
<path d="M259.48 141.294C257.406 139.641 250.209 135.786 242.296 143.644C234.402 151.502 237.614 157.707 239.175 160.002C239.175 160.002 295.226 222.185 297.778 224.755C301.542 228.519 309.271 225.306 316.431 218.146C323.591 210.986 327.043 204.064 323.004 200.025C319.718 196.739 261.555 142.946 259.48 141.294Z" fill="#616161"/>
<path d="M177.634 15.8625C214.078 15.8625 243.728 45.5129 243.728 81.9563C243.728 118.4 214.078 148.05 177.634 148.05C141.191 148.05 111.541 118.4 111.541 81.9563C111.541 45.5129 141.191 15.8625 177.634 15.8625ZM177.634 8.59219C137.134 8.59219 104.289 41.4371 104.289 81.9379C104.289 122.439 137.134 155.284 177.634 155.284C218.135 155.284 250.98 122.457 250.98 81.9379C250.98 41.4188 218.135 8.59219 177.634 8.59219V8.59219Z" fill="#BDBDBD"/>
<path d="M316.442 218.152C323.073 211.519 326.38 204.074 323.828 201.521C321.276 198.969 313.83 202.276 307.198 208.909C300.566 215.541 297.259 222.986 299.812 225.539C302.364 228.091 309.81 224.784 316.442 218.152Z" fill="#424242"/>
<path d="M155.688 30.0268C140.351 38.1077 131.48 49.7717 126.47 64.3577C124.631 69.7245 123.47 75.6673 125.382 80.9949C127.293 86.3225 133.218 90.5373 138.627 88.8467C142.217 87.7273 144.638 84.4924 147.14 81.7105C150.974 77.4391 155.545 73.8019 160.595 71.0423C166.907 67.5827 173.924 65.483 180.086 61.7792C186.247 58.0755 191.751 52.1178 192.189 44.9253C192.597 37.8779 187.756 31.1803 181.376 28.207C174.995 25.2338 164.533 25.3645 155.688 30.0268V30.0268Z" fill="url(#paint0_linear_1_35)"/>
<path opacity="0.59" d="M214.592 139.127C214.592 138.283 214.996 137.512 215.675 137.016C219.255 134.464 228.894 128.497 237.211 112.635C242.039 103.382 243.875 95.6707 244.389 92.9168C245.839 85.1324 249.915 87.7395 249.346 92.7699C248.685 98.498 243.71 123.705 218.723 141.202C216.979 142.432 214.592 141.257 214.592 139.127V139.127ZM145.45 20.9113C145.212 23.298 141.154 25.5562 140.438 26.0152C136.73 28.402 127.55 33.0836 119.16 48.9094C115.249 56.2715 112.44 63.8539 111.486 67.6176C109.925 73.768 105.721 72.5379 106.529 67.5258C107.446 61.8344 113.597 36.884 139.355 20.5625C141.173 19.4242 145.762 17.7535 145.45 20.9113V20.9113Z" fill="white"/>
<path d="M199.666 135.731C191.496 137.218 189.072 133.803 190.1 130.407C190.908 127.708 193.919 126.551 196.618 125.743C211.012 121.429 223.166 109.514 231.996 97.6902C232.198 107.953 229.5 113.902 224.561 119.997C219.732 125.927 212.223 133.436 199.666 135.731Z" fill="url(#paint1_linear_1_35)"/>
<defs>
<linearGradient id="paint0_linear_1_35" x1="148.265" y1="16.7387" x2="161.276" y2="72.599" gradientUnits="userSpaceOnUse">
<stop offset="0.285" stop-color="white"/>
<stop offset="1" stop-color="white" stop-opacity="0"/>
</linearGradient>
<linearGradient id="paint1_linear_1_35" x1="205.23" y1="175.349" x2="212.82" y2="96.9228" gradientUnits="userSpaceOnUse">
<stop offset="0.285" stop-color="white"/>
<stop offset="1" stop-color="white" stop-opacity="0"/>
</linearGradient>
</defs>
</svg>
